<svg width="447" height="195" viewBox="0 0 447 195" fill="none" xmlns="http://www.w3.org/2000/svg">
<path d="M48.6832 95.2841C48.6832 64.991 48.6832 49.8444 58.0811 40.4336C67.4791 31.0227 82.6048 31.0227 112.856 31.0227C143.108 31.0227 158.234 31.0227 167.632 40.4336C177.03 49.8444 177.03 64.991 177.03 95.2841C177.03 125.577 177.03 140.724 167.632 150.135C158.234 159.545 143.108 159.545 112.856 159.545C82.6048 159.545 67.4791 159.545 58.0811 150.135C48.6832 140.724 48.6832 125.577 48.6832 95.2841Z" fill="#243A5A"/>
<path d="M125.458 115.227C127.198 115.227 128.641 116.429 128.295 117.869C127.684 120.411 126.2 122.767 123.995 124.628C121.041 127.122 117.034 128.523 112.856 128.523C108.678 128.523 104.672 127.122 101.718 124.628C99.5124 122.767 98.0285 120.411 97.418 117.869C97.072 116.429 98.5143 115.227 100.254 115.227H125.458Z" fill="#2DF8BB"/>
<path d="M130.751 86.7855C128.883 87.2605 127.739 89.1156 128.686 90.716C129.683 92.4006 131.062 93.8707 132.739 95.0118C135.373 96.8034 138.579 97.6729 141.812 97.4715C145.045 97.2704 148.105 96.0113 150.47 93.9086C152.835 91.8059 154.358 88.9896 154.781 85.94C155.204 82.8903 154.5 79.7958 152.789 77.1836C151.078 74.5717 148.466 72.6036 145.398 71.6147C142.33 70.6259 138.996 70.6777 135.963 71.7613C134.032 72.4514 132.3 73.5326 130.878 74.9147C129.527 76.2279 130.126 78.301 131.8 79.2188L133.576 80.1923C136.277 81.6731 135.745 85.5152 132.732 86.2816L130.751 86.7855Z" fill="#2DF8BB"/>
<path d="M94.962 86.7855C96.8299 87.2605 97.9737 89.1156 97.0267 90.716C96.0299 92.4006 94.6511 93.8707 92.9741 95.0118C90.3405 96.8034 87.1338 97.6729 83.9008 97.4715C80.6675 97.2704 77.6079 96.0113 75.2431 93.9086C72.8783 91.8059 71.3546 88.9896 70.9317 85.94C70.5088 82.8903 71.2128 79.7958 72.9238 77.1836C74.6347 74.5717 77.2468 72.6036 80.3149 71.6147C83.383 70.6259 86.7175 70.6777 89.7498 71.7613C91.6807 72.4514 93.4135 73.5326 94.8356 74.9147C96.1867 76.2279 95.5873 78.301 93.9127 79.2188L92.1366 80.1923C89.4354 81.6731 89.9683 85.5152 92.9811 86.2816L94.962 86.7855Z" fill="#2DF8BB"/>
<path d="M255.937 92.0218C258.41 93.0018 260.417 94.4951 261.957 96.5018C263.544 98.5085 264.337 101.098 264.337 104.272C264.337 109.825 262.75 113.698 259.577 115.892C256.404 118.085 252.624 119.182 248.237 119.182H230.807C229.594 119.182 228.567 118.785 227.727 117.992C226.934 117.152 226.537 116.125 226.537 114.912V74.4518C226.537 73.2385 226.934 72.2351 227.727 71.4418C228.567 70.6018 229.594 70.1818 230.807 70.1818H248.447C257.314 70.1818 261.747 74.3351 261.747 82.6418C261.747 84.7418 261.234 86.6085 260.207 88.2418C259.227 89.8285 257.804 91.0885 255.937 92.0218ZM252.647 84.1818C252.647 82.2685 252.157 80.8451 251.177 79.9118C250.244 78.9318 248.914 78.4418 247.187 78.4418H235.637V89.3618H247.397C248.797 89.3618 250.01 88.8951 251.037 87.9618C252.11 87.0285 252.647 85.7685 252.647 84.1818ZM248.237 111.132C250.43 111.132 252.134 110.548 253.347 109.382C254.607 108.215 255.237 106.512 255.237 104.272C255.237 101.518 254.514 99.7218 253.067 98.8818C251.62 98.0418 249.847 97.6218 247.747 97.6218H235.637V111.132H248.237ZM307.618 100.492C307.618 104.225 306.778 107.585 305.098 110.572C303.418 113.512 301.108 115.798 298.168 117.432C295.275 119.065 292.078 119.882 288.578 119.882C285.031 119.882 281.811 119.065 278.918 117.432C276.025 115.798 273.738 113.512 272.058 110.572C270.378 107.585 269.538 104.225 269.538 100.492C269.538 96.7585 270.378 93.4218 272.058 90.4818C273.738 87.4951 276.025 85.1851 278.918 83.5518C281.811 81.8718 285.031 81.0318 288.578 81.0318C292.078 81.0318 295.275 81.8718 298.168 83.5518C301.108 85.1851 303.418 87.4951 305.098 90.4818C306.778 93.4218 307.618 96.7585 307.618 100.492ZM299.218 100.492C299.218 98.2051 298.728 96.1751 297.748 94.4018C296.815 92.5818 295.531 91.1818 293.898 90.2018C292.311 89.2218 290.538 88.7318 288.578 88.7318C286.618 88.7318 284.821 89.2218 283.188 90.2018C281.601 91.1818 280.318 92.5818 279.338 94.4018C278.405 96.1751 277.938 98.2051 277.938 100.492C277.938 102.778 278.405 104.808 279.338 106.582C280.318 108.355 281.601 109.732 283.188 110.712C284.821 111.692 286.618 112.182 288.578 112.182C290.538 112.182 292.311 111.692 293.898 110.712C295.531 109.732 296.815 108.355 297.748 106.582C298.728 104.808 299.218 102.778 299.218 100.492ZM350.616 100.492C350.616 104.225 349.776 107.585 348.096 110.572C346.416 113.512 344.106 115.798 341.166 117.432C338.273 119.065 335.076 119.882 331.576 119.882C328.029 119.882 324.809 119.065 321.916 117.432C319.023 115.798 316.736 113.512 315.056 110.572C313.376 107.585 312.536 104.225 312.536 100.492C312.536 96.7585 313.376 93.4218 315.056 90.4818C316.736 87.4951 319.023 85.1851 321.916 83.5518C324.809 81.8718 328.029 81.0318 331.576 81.0318C335.076 81.0318 338.273 81.8718 341.166 83.5518C344.106 85.1851 346.416 87.4951 348.096 90.4818C349.776 93.4218 350.616 96.7585 350.616 100.492ZM342.216 100.492C342.216 98.2051 341.726 96.1751 340.746 94.4018C339.813 92.5818 338.529 91.1818 336.896 90.2018C335.309 89.2218 333.536 88.7318 331.576 88.7318C329.616 88.7318 327.819 89.2218 326.186 90.2018C324.599 91.1818 323.316 92.5818 322.336 94.4018C321.403 96.1751 320.936 98.2051 320.936 100.492C320.936 102.778 321.403 104.808 322.336 106.582C323.316 108.355 324.599 109.732 326.186 110.712C327.819 111.692 329.616 112.182 331.576 112.182C333.536 112.182 335.309 111.692 336.896 110.712C338.529 109.732 339.813 108.355 340.746 106.582C341.726 104.808 342.216 102.778 342.216 100.492Z" fill="#243A5A"/>
</svg>
